<svg width="1440" height="352" viewBox="0 0 1440 352" fill="none" xmlns="http://www.w3.org/2000/svg">
<rect width="1440" height="352" fill="#FAFAFA"/>
<path d="M161.918 105V87.5455H168.31C169.548 87.5455 170.574 87.75 171.386 88.1591C172.199 88.5625 172.807 89.1108 173.21 89.804C173.614 90.4915 173.815 91.267 173.815 92.1307C173.815 92.858 173.682 93.4716 173.415 93.9716C173.148 94.4659 172.79 94.8636 172.341 95.1648C171.898 95.4602 171.409 95.6761 170.875 95.8125V95.983C171.455 96.0114 172.02 96.1989 172.571 96.5455C173.128 96.8864 173.588 97.3722 173.952 98.0028C174.315 98.6335 174.497 99.4006 174.497 100.304C174.497 101.196 174.287 101.997 173.866 102.707C173.452 103.412 172.81 103.972 171.94 104.386C171.071 104.795 169.96 105 168.608 105H161.918ZM164.551 102.741H168.352C169.614 102.741 170.517 102.497 171.062 102.009C171.608 101.52 171.881 100.909 171.881 100.176C171.881 99.625 171.741 99.1193 171.463 98.6591C171.185 98.1989 170.787 97.8324 170.27 97.5597C169.759 97.2869 169.151 97.1506 168.446 97.1506H164.551V102.741ZM164.551 95.0966H168.08C168.67 95.0966 169.202 94.983 169.673 94.7557C170.151 94.5284 170.528 94.2102 170.807 93.8011C171.091 93.3864 171.233 92.8977 171.233 92.3352C171.233 91.6136 170.98 91.0085 170.474 90.5199C169.969 90.0312 169.193 89.7869 168.148 89.7869H164.551V95.0966ZM177.656 105V91.9091H180.119V93.9886H180.256C180.494 93.2841 180.915 92.7301 181.517 92.3267C182.125 91.9176 182.812 91.7131 183.579 91.7131C183.739 91.7131 183.926 91.7187 184.142 91.7301C184.364 91.7415 184.537 91.7557 184.662 91.7727V94.2102C184.56 94.1818 184.378 94.1506 184.116 94.1165C183.855 94.0767 183.594 94.0568 183.332 94.0568C182.73 94.0568 182.193 94.1847 181.722 94.4403C181.256 94.6903 180.886 95.0398 180.614 95.4886C180.341 95.9318 180.204 96.4375 180.204 97.0057V105H177.656ZM192.153 105.264C190.925 105.264 189.854 104.983 188.94 104.42C188.025 103.858 187.315 103.071 186.809 102.06C186.303 101.048 186.05 99.8665 186.05 98.5142C186.05 97.1562 186.303 95.9687 186.809 94.9517C187.315 93.9347 188.025 93.1449 188.94 92.5824C189.854 92.0199 190.925 91.7386 192.153 91.7386C193.38 91.7386 194.451 92.0199 195.366 92.5824C196.28 93.1449 196.991 93.9347 197.496 94.9517C198.002 95.9687 198.255 97.1562 198.255 98.5142C198.255 99.8665 198.002 101.048 197.496 102.06C196.991 103.071 196.28 103.858 195.366 104.42C194.451 104.983 193.38 105.264 192.153 105.264ZM192.161 103.125C192.957 103.125 193.616 102.915 194.138 102.494C194.661 102.074 195.047 101.514 195.297 100.815C195.553 100.116 195.681 99.3466 195.681 98.5057C195.681 97.6705 195.553 96.9034 195.297 96.2045C195.047 95.5 194.661 94.9347 194.138 94.5085C193.616 94.0824 192.957 93.8693 192.161 93.8693C191.36 93.8693 190.695 94.0824 190.167 94.5085C189.644 94.9347 189.255 95.5 188.999 96.2045C188.749 96.9034 188.624 97.6705 188.624 98.5057C188.624 99.3466 188.749 100.116 188.999 100.815C189.255 101.514 189.644 102.074 190.167 102.494C190.695 102.915 191.36 103.125 192.161 103.125ZM203.779 105L199.927 91.9091H202.56L205.126 101.523H205.253L207.827 91.9091H210.461L213.018 101.48H213.145L215.694 91.9091H218.327L214.483 105H211.884L209.225 95.5483H209.029L206.37 105H203.779ZM230.795 95.1051L228.486 95.5142C228.389 95.2187 228.236 94.9375 228.025 94.6705C227.821 94.4034 227.542 94.1847 227.19 94.0142C226.838 93.8437 226.397 93.7585 225.869 93.7585C225.147 93.7585 224.545 93.9205 224.062 94.2443C223.579 94.5625 223.338 94.9744 223.338 95.4801C223.338 95.9176 223.5 96.2699 223.824 96.5369C224.147 96.804 224.67 97.0227 225.392 97.1932L227.471 97.6705C228.676 97.9489 229.574 98.3778 230.165 98.9574C230.755 99.5369 231.051 100.29 231.051 101.216C231.051 102 230.824 102.699 230.369 103.312C229.92 103.92 229.292 104.398 228.486 104.744C227.684 105.091 226.755 105.264 225.699 105.264C224.233 105.264 223.037 104.952 222.111 104.327C221.184 103.696 220.616 102.801 220.406 101.642L222.869 101.267C223.022 101.909 223.338 102.395 223.815 102.724C224.292 103.048 224.915 103.21 225.682 103.21C226.517 103.21 227.184 103.037 227.684 102.69C228.184 102.338 228.434 101.909 228.434 101.403C228.434 100.994 228.281 100.651 227.974 100.372C227.673 100.094 227.21 99.8835 226.585 99.7415L224.369 99.2557C223.147 98.9773 222.244 98.5341 221.659 97.9261C221.079 97.3182 220.79 96.5483 220.79 95.6165C220.79 94.8437 221.005 94.1676 221.437 93.5881C221.869 93.0085 222.466 92.5568 223.227 92.233C223.988 91.9034 224.861 91.7386 225.844 91.7386C227.258 91.7386 228.372 92.0455 229.184 92.6591C229.997 93.267 230.534 94.0824 230.795 95.1051ZM239.735 105.264C238.445 105.264 237.334 104.989 236.402 104.438C235.476 103.881 234.76 103.099 234.255 102.094C233.755 101.082 233.505 99.8977 233.505 98.5398C233.505 97.1989 233.755 96.017 234.255 94.9943C234.76 93.9716 235.465 93.1733 236.368 92.5994C237.277 92.0256 238.34 91.7386 239.556 91.7386C240.294 91.7386 241.01 91.8608 241.704 92.1051C242.397 92.3494 243.019 92.733 243.57 93.2557C244.121 93.7784 244.556 94.4574 244.874 95.2926C245.192 96.1222 245.351 97.1307 245.351 98.3182V99.2216H234.945V97.3125H242.854C242.854 96.642 242.718 96.0483 242.445 95.5312C242.172 95.0085 241.789 94.5966 241.294 94.2955C240.806 93.9943 240.232 93.8438 239.573 93.8438C238.857 93.8438 238.232 94.0199 237.698 94.3722C237.169 94.7187 236.76 95.1733 236.471 95.7358C236.187 96.2926 236.044 96.8977 236.044 97.5511V99.0426C236.044 99.9176 236.198 100.662 236.505 101.276C236.817 101.889 237.252 102.358 237.809 102.682C238.365 103 239.016 103.159 239.76 103.159C240.243 103.159 240.684 103.091 241.081 102.955C241.479 102.812 241.823 102.602 242.113 102.324C242.402 102.045 242.624 101.702 242.777 101.293L245.189 101.727C244.996 102.437 244.65 103.06 244.15 103.594C243.655 104.122 243.033 104.534 242.283 104.83C241.539 105.119 240.689 105.264 239.735 105.264ZM255.215 105V87.5455H261.607C262.845 87.5455 263.871 87.75 264.684 88.1591C265.496 88.5625 266.104 89.1108 266.507 89.804C266.911 90.4915 267.113 91.267 267.113 92.1307C267.113 92.858 266.979 93.4716 266.712 93.9716C266.445 94.4659 266.087 94.8636 265.638 95.1648C265.195 95.4602 264.706 95.6761 264.172 95.8125V95.983C264.752 96.0114 265.317 96.1989 265.868 96.5455C266.425 96.8864 266.885 97.3722 267.249 98.0028C267.613 98.6335 267.794 99.4006 267.794 100.304C267.794 101.196 267.584 101.997 267.164 102.707C266.749 103.412 266.107 103.972 265.238 104.386C264.368 104.795 263.257 105 261.905 105H255.215ZM257.848 102.741H261.649C262.911 102.741 263.814 102.497 264.36 102.009C264.905 101.52 265.178 100.909 265.178 100.176C265.178 99.625 265.039 99.1193 264.76 98.6591C264.482 98.1989 264.084 97.8324 263.567 97.5597C263.056 97.2869 262.448 97.1506 261.743 97.1506H257.848V102.741ZM257.848 95.0966H261.377C261.968 95.0966 262.499 94.983 262.97 94.7557C263.448 94.5284 263.826 94.2102 264.104 93.8011C264.388 93.3864 264.53 92.8977 264.53 92.3352C264.53 91.6136 264.277 91.0085 263.772 90.5199C263.266 90.0312 262.49 89.7869 261.445 89.7869H257.848V95.0966ZM272.564 109.909C272.183 109.909 271.837 109.878 271.524 109.815C271.212 109.759 270.979 109.696 270.826 109.628L271.439 107.54C271.905 107.665 272.32 107.719 272.683 107.702C273.047 107.685 273.368 107.548 273.647 107.293C273.931 107.037 274.181 106.619 274.397 106.04L274.712 105.17L269.922 91.9091H272.649L275.965 102.068H276.101L279.416 91.9091H282.152L276.757 106.747C276.507 107.429 276.189 108.006 275.803 108.477C275.416 108.955 274.956 109.313 274.422 109.551C273.888 109.79 273.269 109.909 272.564 109.909ZM306.08 93.2216H303.421C303.319 92.6534 303.129 92.1534 302.85 91.7216C302.572 91.2898 302.231 90.9233 301.828 90.6222C301.424 90.321 300.972 90.0937 300.472 89.9403C299.978 89.7869 299.453 89.7102 298.896 89.7102C297.89 89.7102 296.989 89.9631 296.194 90.4688C295.404 90.9744 294.779 91.7159 294.319 92.6932C293.864 93.6705 293.637 94.8636 293.637 96.2727C293.637 97.6932 293.864 98.892 294.319 99.8693C294.779 100.847 295.407 101.585 296.203 102.085C296.998 102.585 297.893 102.835 298.887 102.835C299.438 102.835 299.961 102.761 300.455 102.614C300.955 102.46 301.407 102.236 301.811 101.94C302.214 101.645 302.555 101.284 302.833 100.858C303.117 100.426 303.313 99.9318 303.421 99.375L306.08 99.3835C305.938 100.241 305.663 101.031 305.254 101.753C304.85 102.469 304.33 103.088 303.694 103.611C303.063 104.128 302.342 104.528 301.529 104.812C300.717 105.097 299.83 105.239 298.87 105.239C297.359 105.239 296.012 104.881 294.83 104.165C293.649 103.443 292.717 102.412 292.035 101.071C291.359 99.7301 291.021 98.1307 291.021 96.2727C291.021 94.4091 291.362 92.8097 292.043 91.4744C292.725 90.1335 293.657 89.1051 294.839 88.3892C296.021 87.6676 297.364 87.3068 298.87 87.3068C299.796 87.3068 300.66 87.4403 301.461 87.7074C302.268 87.9687 302.992 88.3551 303.634 88.8665C304.276 89.3722 304.808 89.9915 305.228 90.7244C305.649 91.4517 305.933 92.2841 306.08 93.2216ZM313.077 105.29C312.247 105.29 311.497 105.136 310.827 104.83C310.156 104.517 309.625 104.065 309.233 103.474C308.847 102.884 308.653 102.159 308.653 101.301C308.653 100.562 308.796 99.9545 309.08 99.4773C309.364 99 309.747 98.6222 310.23 98.3438C310.713 98.0653 311.253 97.8551 311.85 97.7131C312.446 97.571 313.054 97.4631 313.673 97.3892C314.457 97.2983 315.094 97.2244 315.582 97.1676C316.071 97.1051 316.426 97.0057 316.648 96.8693C316.869 96.733 316.98 96.5114 316.98 96.2045V96.1449C316.98 95.4006 316.77 94.8239 316.35 94.4148C315.935 94.0057 315.315 93.8011 314.492 93.8011C313.634 93.8011 312.957 93.9915 312.463 94.3722C311.975 94.7472 311.636 95.1648 311.449 95.625L309.054 95.0795C309.338 94.2841 309.753 93.642 310.298 93.1534C310.85 92.6591 311.483 92.3011 312.199 92.0795C312.915 91.8523 313.668 91.7386 314.457 91.7386C314.98 91.7386 315.534 91.8011 316.119 91.9261C316.71 92.0455 317.261 92.267 317.773 92.5909C318.29 92.9148 318.713 93.3778 319.043 93.9801C319.372 94.5767 319.537 95.3523 319.537 96.3068V105H317.048V103.21H316.946C316.781 103.54 316.534 103.864 316.205 104.182C315.875 104.5 315.452 104.764 314.935 104.974C314.418 105.185 313.798 105.29 313.077 105.29ZM313.631 103.244C314.335 103.244 314.938 103.105 315.438 102.827C315.943 102.548 316.327 102.185 316.588 101.736C316.855 101.281 316.989 100.795 316.989 100.278V98.5909C316.898 98.6818 316.722 98.767 316.46 98.8466C316.205 98.9205 315.912 98.9858 315.582 99.0426C315.253 99.0937 314.932 99.142 314.619 99.1875C314.307 99.2273 314.046 99.2614 313.835 99.2898C313.341 99.3523 312.889 99.4574 312.48 99.6051C312.077 99.7528 311.753 99.9659 311.509 100.244C311.27 100.517 311.151 100.881 311.151 101.335C311.151 101.966 311.384 102.443 311.85 102.767C312.315 103.085 312.909 103.244 313.631 103.244ZM329.282 91.9091V93.9545H322.131V91.9091H329.282ZM324.049 88.7727H326.597V101.156C326.597 101.651 326.671 102.023 326.819 102.273C326.967 102.517 327.157 102.685 327.39 102.776C327.629 102.861 327.887 102.903 328.166 102.903C328.37 102.903 328.549 102.889 328.702 102.861C328.856 102.832 328.975 102.81 329.06 102.793L329.521 104.898C329.373 104.955 329.163 105.011 328.89 105.068C328.617 105.131 328.276 105.165 327.867 105.17C327.197 105.182 326.572 105.062 325.992 104.812C325.413 104.562 324.944 104.176 324.586 103.653C324.228 103.131 324.049 102.474 324.049 101.685V88.7727ZM337.842 105.264C336.553 105.264 335.442 104.989 334.51 104.438C333.584 103.881 332.868 103.099 332.362 102.094C331.862 101.082 331.612 99.8977 331.612 98.5398C331.612 97.1989 331.862 96.017 332.362 94.9943C332.868 93.9716 333.572 93.1733 334.476 92.5994C335.385 92.0256 336.447 91.7386 337.663 91.7386C338.402 91.7386 339.118 91.8608 339.811 92.1051C340.504 92.3494 341.126 92.733 341.678 93.2557C342.229 93.7784 342.663 94.4574 342.982 95.2926C343.3 96.1222 343.459 97.1307 343.459 98.3182V99.2216H333.053V97.3125H340.962C340.962 96.642 340.825 96.0483 340.553 95.5312C340.28 95.0085 339.896 94.5966 339.402 94.2955C338.913 93.9943 338.339 93.8438 337.68 93.8438C336.964 93.8438 336.339 94.0199 335.805 94.3722C335.277 94.7187 334.868 95.1733 334.578 95.7358C334.294 96.2926 334.152 96.8977 334.152 97.5511V99.0426C334.152 99.9176 334.305 100.662 334.612 101.276C334.925 101.889 335.359 102.358 335.916 102.682C336.473 103 337.124 103.159 337.868 103.159C338.351 103.159 338.791 103.091 339.189 102.955C339.587 102.812 339.93 102.602 340.22 102.324C340.51 102.045 340.732 101.702 340.885 101.293L343.297 101.727C343.104 102.437 342.757 103.06 342.257 103.594C341.763 104.122 341.141 104.534 340.391 104.83C339.646 105.119 338.797 105.264 337.842 105.264ZM352.015 110.182C350.975 110.182 350.08 110.045 349.33 109.773C348.586 109.5 347.978 109.139 347.506 108.69C347.035 108.241 346.682 107.75 346.449 107.216L348.64 106.312C348.793 106.562 348.998 106.827 349.253 107.105C349.515 107.389 349.867 107.631 350.31 107.83C350.759 108.028 351.336 108.128 352.04 108.128C353.006 108.128 353.805 107.892 354.435 107.42C355.066 106.955 355.381 106.21 355.381 105.188V102.614H355.219C355.066 102.892 354.844 103.202 354.555 103.543C354.271 103.884 353.878 104.179 353.378 104.429C352.878 104.679 352.228 104.804 351.427 104.804C350.393 104.804 349.461 104.562 348.631 104.08C347.807 103.591 347.154 102.872 346.671 101.923C346.194 100.969 345.955 99.7955 345.955 98.4034C345.955 97.0114 346.191 95.8182 346.663 94.8239C347.14 93.8295 347.793 93.0682 348.623 92.5398C349.452 92.0057 350.393 91.7386 351.444 91.7386C352.256 91.7386 352.913 91.875 353.413 92.1477C353.913 92.4148 354.302 92.7273 354.58 93.0852C354.864 93.4432 355.083 93.7585 355.236 94.0312H355.424V91.9091H357.921V105.29C357.921 106.415 357.66 107.338 357.137 108.06C356.614 108.781 355.907 109.315 355.015 109.662C354.128 110.009 353.128 110.182 352.015 110.182ZM351.989 102.69C352.722 102.69 353.342 102.52 353.847 102.179C354.359 101.832 354.745 101.338 355.006 100.696C355.273 100.048 355.407 99.2727 355.407 98.3693C355.407 97.4886 355.276 96.7131 355.015 96.0426C354.753 95.3722 354.37 94.8494 353.864 94.4744C353.359 94.0937 352.734 93.9034 351.989 93.9034C351.222 93.9034 350.583 94.1023 350.072 94.5C349.56 94.892 349.174 95.4261 348.913 96.1023C348.657 96.7784 348.529 97.5341 348.529 98.3693C348.529 99.2273 348.66 99.9801 348.921 100.628C349.182 101.276 349.569 101.781 350.08 102.145C350.597 102.509 351.234 102.69 351.989 102.69ZM367.093 105.264C365.866 105.264 364.795 104.983 363.88 104.42C362.965 103.858 362.255 103.071 361.749 102.06C361.243 101.048 360.991 99.8665 360.991 98.5142C360.991 97.1562 361.243 95.9687 361.749 94.9517C362.255 93.9347 362.965 93.1449 363.88 92.5824C364.795 92.0199 365.866 91.7386 367.093 91.7386C368.32 91.7386 369.391 92.0199 370.306 92.5824C371.221 93.1449 371.931 93.9347 372.437 94.9517C372.942 95.9687 373.195 97.1562 373.195 98.5142C373.195 99.8665 372.942 101.048 372.437 102.06C371.931 103.071 371.221 103.858 370.306 104.42C369.391 104.983 368.32 105.264 367.093 105.264ZM367.101 103.125C367.897 103.125 368.556 102.915 369.079 102.494C369.601 102.074 369.988 101.514 370.238 100.815C370.493 100.116 370.621 99.3466 370.621 98.5057C370.621 97.6705 370.493 96.9034 370.238 96.2045C369.988 95.5 369.601 94.9347 369.079 94.5085C368.556 94.0824 367.897 93.8693 367.101 93.8693C366.3 93.8693 365.636 94.0824 365.107 94.5085C364.584 94.9347 364.195 95.5 363.939 96.2045C363.689 96.9034 363.564 97.6705 363.564 98.5057C363.564 99.3466 363.689 100.116 363.939 100.815C364.195 101.514 364.584 102.074 365.107 102.494C365.636 102.915 366.3 103.125 367.101 103.125ZM376.28 105V91.9091H378.743V93.9886H378.879C379.118 93.2841 379.538 92.7301 380.14 92.3267C380.748 91.9176 381.436 91.7131 382.203 91.7131C382.362 91.7131 382.55 91.7187 382.765 91.7301C382.987 91.7415 383.16 91.7557 383.285 91.7727V94.2102C383.183 94.1818 383.001 94.1506 382.74 94.1165C382.478 94.0767 382.217 94.0568 381.956 94.0568C381.353 94.0568 380.817 94.1847 380.345 94.4403C379.879 94.6903 379.51 95.0398 379.237 95.4886C378.964 95.9318 378.828 96.4375 378.828 97.0057V105H376.28ZM387.74 109.909C387.359 109.909 387.013 109.878 386.7 109.815C386.388 109.759 386.155 109.696 386.001 109.628L386.615 107.54C387.081 107.665 387.495 107.719 387.859 107.702C388.223 107.685 388.544 107.548 388.822 107.293C389.106 107.037 389.356 106.619 389.572 106.04L389.888 105.17L385.098 91.9091H387.825L391.14 102.068H391.277L394.592 91.9091H397.328L391.933 106.747C391.683 107.429 391.365 108.006 390.978 108.477C390.592 108.955 390.132 109.313 389.598 109.551C389.064 109.79 388.444 109.909 387.74 109.909Z" fill="black"/>
<path d="M1221.33 107.667C1221.07 107.668 1220.81 107.562 1220.63 107.373L1209.96 96.7067C1209.57 96.3162 1209.57 95.6838 1209.96 95.2933L1220.63 84.6267C1221.02 84.2595 1221.63 84.2704 1222.02 84.6512C1222.4 85.032 1222.41 85.646 1222.04 86.04L1212.08 96L1222.04 105.96C1222.43 106.35 1222.43 106.983 1222.04 107.373C1221.85 107.562 1221.6 107.668 1221.33 107.667Z" fill="black"/>
<path d="M1258.67 84.3333C1258.93 84.3321 1259.19 84.4378 1259.37 84.6267L1270.04 95.2933C1270.43 95.6838 1270.43 96.3162 1270.04 96.7067L1259.37 107.373C1258.98 107.74 1258.37 107.73 1257.98 107.349C1257.6 106.968 1257.59 106.354 1257.96 105.96L1267.92 96L1257.96 86.04C1257.57 85.6496 1257.57 85.0171 1257.96 84.6267C1258.15 84.4378 1258.4 84.3321 1258.67 84.3333Z" fill="black"/>
<rect x="160" y="144" width="160" height="128" rx="15" fill="#EDEDED"/>
<g clip-path="url(#clip0_248_2033)">
<path d="M249.375 173.25H230.625C229.331 173.25 228.281 174.299 228.281 175.594V208.406C228.281 209.701 229.331 210.75 230.625 210.75H249.375C250.669 210.75 251.719 209.701 251.719 208.406V175.594C251.719 174.299 250.669 173.25 249.375 173.25Z" stroke="black" stroke-width="2" stroke-linecap="round" stroke-linejoin="round"/>
<path d="M238 174H242.688" stroke="black" stroke-width="3" stroke-linecap="round" stroke-linejoin="round"/>
<path d="M240 205.719V205.74" stroke="black" stroke-width="2.5" stroke-linecap="round" stroke-linejoin="round"/>
<line x1="229" y1="202" x2="251" y2="202" stroke="black" stroke-width="2"/>
</g>
<path d="M212.763 242V230.364H216.911C217.816 230.364 218.566 230.528 219.161 230.858C219.755 231.187 220.2 231.638 220.496 232.21C220.791 232.778 220.939 233.419 220.939 234.131C220.939 234.847 220.789 235.491 220.49 236.062C220.195 236.631 219.748 237.081 219.149 237.415C218.554 237.744 217.806 237.909 216.905 237.909H214.053V236.42H216.746C217.318 236.42 217.782 236.322 218.138 236.125C218.494 235.924 218.755 235.652 218.922 235.307C219.089 234.962 219.172 234.57 219.172 234.131C219.172 233.691 219.089 233.301 218.922 232.96C218.755 232.619 218.492 232.352 218.132 232.159C217.776 231.966 217.306 231.869 216.723 231.869H214.518V242H212.763ZM224.56 236.818V242H222.861V230.364H224.537V234.693H224.645C224.849 234.223 225.162 233.85 225.582 233.574C226.003 233.297 226.552 233.159 227.23 233.159C227.829 233.159 228.351 233.282 228.798 233.528C229.249 233.775 229.598 234.142 229.844 234.631C230.094 235.116 230.219 235.722 230.219 236.449V242H228.52V236.653C228.52 236.013 228.355 235.517 228.026 235.165C227.696 234.809 227.238 234.631 226.651 234.631C226.249 234.631 225.889 234.716 225.571 234.886C225.257 235.057 225.009 235.307 224.827 235.636C224.649 235.962 224.56 236.356 224.56 236.818ZM236.162 242.176C235.344 242.176 234.63 241.989 234.02 241.614C233.41 241.239 232.937 240.714 232.599 240.04C232.262 239.366 232.094 238.578 232.094 237.676C232.094 236.771 232.262 235.979 232.599 235.301C232.937 234.623 233.41 234.097 234.02 233.722C234.63 233.347 235.344 233.159 236.162 233.159C236.98 233.159 237.694 233.347 238.304 233.722C238.914 234.097 239.387 234.623 239.724 235.301C240.062 235.979 240.23 236.771 240.23 237.676C240.23 238.578 240.062 239.366 239.724 240.04C239.387 240.714 238.914 241.239 238.304 241.614C237.694 241.989 236.98 242.176 236.162 242.176ZM236.168 240.75C236.698 240.75 237.137 240.61 237.486 240.33C237.834 240.049 238.092 239.676 238.259 239.21C238.429 238.744 238.514 238.231 238.514 237.67C238.514 237.114 238.429 236.602 238.259 236.136C238.092 235.667 237.834 235.29 237.486 235.006C237.137 234.722 236.698 234.58 236.168 234.58C235.634 234.58 235.19 234.722 234.838 235.006C234.49 235.29 234.23 235.667 234.06 236.136C233.893 236.602 233.81 237.114 233.81 237.67C233.81 238.231 233.893 238.744 234.06 239.21C234.23 239.676 234.49 240.049 234.838 240.33C235.19 240.61 235.634 240.75 236.168 240.75ZM243.825 236.818V242H242.126V233.273H243.757V234.693H243.865C244.066 234.231 244.38 233.86 244.808 233.58C245.24 233.299 245.784 233.159 246.439 233.159C247.034 233.159 247.554 233.284 248.001 233.534C248.448 233.78 248.795 234.148 249.041 234.636C249.287 235.125 249.411 235.729 249.411 236.449V242H247.712V236.653C247.712 236.021 247.547 235.527 247.217 235.17C246.888 234.811 246.435 234.631 245.859 234.631C245.465 234.631 245.115 234.716 244.808 234.886C244.505 235.057 244.265 235.307 244.087 235.636C243.912 235.962 243.825 236.356 243.825 236.818ZM255.45 242.176C254.59 242.176 253.85 241.992 253.229 241.625C252.611 241.254 252.134 240.733 251.797 240.062C251.464 239.388 251.297 238.598 251.297 237.693C251.297 236.799 251.464 236.011 251.797 235.33C252.134 234.648 252.604 234.116 253.206 233.733C253.812 233.35 254.52 233.159 255.331 233.159C255.823 233.159 256.301 233.241 256.763 233.403C257.225 233.566 257.64 233.822 258.007 234.17C258.375 234.519 258.664 234.972 258.876 235.528C259.089 236.081 259.195 236.754 259.195 237.545V238.148H252.257V236.875H257.53C257.53 236.428 257.439 236.032 257.257 235.688C257.075 235.339 256.82 235.064 256.49 234.864C256.164 234.663 255.782 234.562 255.342 234.562C254.865 234.562 254.448 234.68 254.092 234.915C253.74 235.146 253.467 235.449 253.274 235.824C253.085 236.195 252.99 236.598 252.99 237.034V238.028C252.99 238.612 253.092 239.108 253.297 239.517C253.505 239.926 253.795 240.239 254.166 240.455C254.537 240.667 254.971 240.773 255.467 240.773C255.789 240.773 256.083 240.727 256.348 240.636C256.613 240.542 256.842 240.402 257.036 240.216C257.229 240.03 257.376 239.801 257.479 239.528L259.087 239.818C258.958 240.292 258.727 240.706 258.393 241.062C258.064 241.415 257.649 241.689 257.149 241.886C256.653 242.08 256.087 242.176 255.45 242.176ZM267.619 235.403L266.08 235.676C266.015 235.479 265.913 235.292 265.773 235.114C265.636 234.936 265.451 234.79 265.216 234.676C264.981 234.562 264.688 234.506 264.335 234.506C263.854 234.506 263.453 234.614 263.131 234.83C262.809 235.042 262.648 235.316 262.648 235.653C262.648 235.945 262.756 236.18 262.972 236.358C263.188 236.536 263.536 236.682 264.017 236.795L265.403 237.114C266.206 237.299 266.805 237.585 267.199 237.972C267.593 238.358 267.79 238.86 267.79 239.477C267.79 240 267.638 240.466 267.335 240.875C267.036 241.28 266.617 241.598 266.08 241.83C265.545 242.061 264.926 242.176 264.222 242.176C263.244 242.176 262.447 241.968 261.83 241.551C261.212 241.131 260.833 240.534 260.693 239.761L262.335 239.511C262.438 239.939 262.648 240.263 262.966 240.483C263.284 240.699 263.699 240.807 264.21 240.807C264.767 240.807 265.212 240.691 265.545 240.46C265.879 240.225 266.045 239.939 266.045 239.602C266.045 239.33 265.943 239.1 265.739 238.915C265.538 238.729 265.229 238.589 264.812 238.494L263.335 238.17C262.521 237.985 261.919 237.689 261.528 237.284C261.142 236.879 260.949 236.366 260.949 235.744C260.949 235.229 261.093 234.778 261.381 234.392C261.669 234.006 262.066 233.705 262.574 233.489C263.081 233.269 263.663 233.159 264.318 233.159C265.261 233.159 266.004 233.364 266.545 233.773C267.087 234.178 267.445 234.722 267.619 235.403Z" fill="black"/>
<rect x="352" y="144" width="160" height="128" rx="15" fill="#EDEDED"/>
<g clip-path="url(#clip1_248_2033)">
<path d="M438 180H426C422.686 180 420 182.686 420 186V198C420 201.314 422.686 204 426 204H438C441.314 204 444 201.314 444 198V186C444 182.686 441.314 180 438 180Z" stroke="black" stroke-width="2" stroke-linecap="round" stroke-linejoin="round"/>
<path d="M426 204V210H438V204" stroke="black" stroke-width="2" stroke-linecap="round" stroke-linejoin="round"/>
<path d="M426 180V174H438V180" stroke="black" stroke-width="2" stroke-linecap="round" stroke-linejoin="round"/>
<line x1="428.714" y1="186" x2="428.714" y2="197" stroke="black" stroke-width="2" stroke-linecap="round"/>
<line x1="432.714" y1="191" x2="432.714" y2="197" stroke="black" stroke-width="2" stroke-linecap="round"/>
<line x1="436.714" y1="189" x2="436.714" y2="197" stroke="black" stroke-width="2" stroke-linecap="round"/>
</g>
<path d="M381.219 233.42C381.158 232.883 380.908 232.466 380.469 232.17C380.029 231.871 379.476 231.722 378.81 231.722C378.332 231.722 377.92 231.797 377.571 231.949C377.223 232.097 376.952 232.301 376.759 232.562C376.569 232.82 376.474 233.114 376.474 233.443C376.474 233.72 376.539 233.958 376.668 234.159C376.8 234.36 376.973 234.528 377.185 234.665C377.401 234.797 377.632 234.909 377.878 235C378.124 235.087 378.361 235.159 378.588 235.216L379.724 235.511C380.096 235.602 380.476 235.725 380.866 235.881C381.257 236.036 381.618 236.241 381.952 236.494C382.285 236.748 382.554 237.062 382.759 237.438C382.967 237.812 383.071 238.261 383.071 238.784C383.071 239.443 382.901 240.028 382.56 240.54C382.223 241.051 381.732 241.455 381.088 241.75C380.448 242.045 379.673 242.193 378.764 242.193C377.893 242.193 377.139 242.055 376.503 241.778C375.866 241.502 375.368 241.11 375.009 240.602C374.649 240.091 374.45 239.485 374.412 238.784H376.173C376.207 239.205 376.344 239.555 376.582 239.835C376.825 240.112 377.134 240.318 377.509 240.455C377.887 240.587 378.302 240.653 378.753 240.653C379.249 240.653 379.69 240.576 380.077 240.42C380.467 240.261 380.774 240.042 380.997 239.761C381.221 239.477 381.332 239.146 381.332 238.767C381.332 238.422 381.234 238.14 381.037 237.92C380.844 237.701 380.58 237.519 380.247 237.375C379.918 237.231 379.545 237.104 379.128 236.994L377.753 236.619C376.821 236.366 376.082 235.992 375.537 235.5C374.995 235.008 374.724 234.356 374.724 233.545C374.724 232.875 374.906 232.29 375.27 231.79C375.634 231.29 376.126 230.902 376.747 230.625C377.368 230.345 378.069 230.205 378.849 230.205C379.637 230.205 380.332 230.343 380.935 230.619C381.541 230.896 382.018 231.277 382.366 231.761C382.715 232.242 382.897 232.795 382.912 233.42H381.219ZM385.033 242V233.273H386.663V234.693H386.771C386.953 234.212 387.25 233.837 387.663 233.568C388.076 233.295 388.571 233.159 389.146 233.159C389.73 233.159 390.218 233.295 390.612 233.568C391.01 233.841 391.304 234.216 391.493 234.693H391.584C391.792 234.227 392.124 233.856 392.578 233.58C393.033 233.299 393.574 233.159 394.203 233.159C394.995 233.159 395.641 233.407 396.141 233.903C396.644 234.4 396.896 235.148 396.896 236.148V242H395.197V236.307C395.197 235.716 395.036 235.288 394.714 235.023C394.393 234.758 394.008 234.625 393.561 234.625C393.008 234.625 392.578 234.795 392.271 235.136C391.964 235.473 391.811 235.907 391.811 236.438V242H390.118V236.199C390.118 235.725 389.97 235.345 389.675 235.057C389.379 234.769 388.995 234.625 388.521 234.625C388.199 234.625 387.902 234.71 387.629 234.881C387.36 235.047 387.143 235.28 386.976 235.58C386.813 235.879 386.732 236.225 386.732 236.619V242H385.033ZM401.713 242.193C401.16 242.193 400.66 242.091 400.213 241.886C399.766 241.678 399.412 241.377 399.151 240.983C398.893 240.589 398.764 240.106 398.764 239.534C398.764 239.042 398.859 238.636 399.048 238.318C399.238 238 399.493 237.748 399.815 237.562C400.137 237.377 400.497 237.237 400.895 237.142C401.293 237.047 401.698 236.975 402.111 236.926C402.634 236.866 403.058 236.816 403.384 236.778C403.709 236.737 403.946 236.67 404.094 236.58C404.241 236.489 404.315 236.341 404.315 236.136V236.097C404.315 235.6 404.175 235.216 403.895 234.943C403.618 234.67 403.205 234.534 402.656 234.534C402.084 234.534 401.634 234.661 401.304 234.915C400.978 235.165 400.753 235.443 400.628 235.75L399.031 235.386C399.221 234.856 399.497 234.428 399.861 234.102C400.228 233.773 400.651 233.534 401.128 233.386C401.605 233.235 402.107 233.159 402.634 233.159C402.982 233.159 403.351 233.201 403.741 233.284C404.135 233.364 404.503 233.511 404.844 233.727C405.188 233.943 405.471 234.252 405.69 234.653C405.91 235.051 406.02 235.568 406.02 236.205V242H404.361V240.807H404.293C404.183 241.027 404.018 241.242 403.798 241.455C403.579 241.667 403.296 241.843 402.952 241.983C402.607 242.123 402.194 242.193 401.713 242.193ZM402.082 240.83C402.552 240.83 402.954 240.737 403.287 240.551C403.624 240.366 403.88 240.123 404.054 239.824C404.232 239.521 404.321 239.197 404.321 238.852V237.727C404.26 237.788 404.143 237.845 403.969 237.898C403.798 237.947 403.603 237.991 403.384 238.028C403.164 238.062 402.95 238.095 402.741 238.125C402.533 238.152 402.359 238.174 402.219 238.193C401.889 238.235 401.588 238.305 401.315 238.403C401.046 238.502 400.83 238.644 400.668 238.83C400.509 239.011 400.429 239.254 400.429 239.557C400.429 239.977 400.584 240.295 400.895 240.511C401.205 240.723 401.601 240.83 402.082 240.83ZM408.283 242V233.273H409.925V234.659H410.016C410.175 234.189 410.455 233.82 410.857 233.551C411.262 233.278 411.72 233.142 412.232 233.142C412.338 233.142 412.463 233.146 412.607 233.153C412.754 233.161 412.87 233.17 412.953 233.182V234.807C412.885 234.788 412.764 234.767 412.589 234.744C412.415 234.718 412.241 234.705 412.067 234.705C411.665 234.705 411.307 234.79 410.993 234.96C410.682 235.127 410.436 235.36 410.254 235.659C410.072 235.955 409.982 236.292 409.982 236.67V242H408.283ZM419.013 233.273V234.636H414.246V233.273H419.013ZM415.524 231.182H417.223V239.438C417.223 239.767 417.272 240.015 417.371 240.182C417.469 240.345 417.596 240.456 417.751 240.517C417.911 240.574 418.083 240.602 418.268 240.602C418.405 240.602 418.524 240.593 418.626 240.574C418.729 240.555 418.808 240.54 418.865 240.528L419.172 241.932C419.073 241.97 418.933 242.008 418.751 242.045C418.57 242.087 418.342 242.11 418.07 242.114C417.623 242.121 417.206 242.042 416.82 241.875C416.433 241.708 416.121 241.451 415.882 241.102C415.643 240.754 415.524 240.316 415.524 239.79V231.182ZM427.541 242L424.314 230.364H426.161L428.428 239.375H428.536L430.893 230.364H432.723L435.081 239.381H435.189L437.45 230.364H439.303L436.07 242H434.303L431.854 233.284H431.763L429.314 242H427.541ZM442.447 242.193C441.894 242.193 441.394 242.091 440.947 241.886C440.5 241.678 440.146 241.377 439.885 240.983C439.627 240.589 439.499 240.106 439.499 239.534C439.499 239.042 439.593 238.636 439.783 238.318C439.972 238 440.228 237.748 440.55 237.562C440.872 237.377 441.232 237.237 441.629 237.142C442.027 237.047 442.432 236.975 442.845 236.926C443.368 236.866 443.792 236.816 444.118 236.778C444.444 236.737 444.68 236.67 444.828 236.58C444.976 236.489 445.05 236.341 445.05 236.136V236.097C445.05 235.6 444.91 235.216 444.629 234.943C444.353 234.67 443.94 234.534 443.391 234.534C442.819 234.534 442.368 234.661 442.038 234.915C441.713 235.165 441.487 235.443 441.362 235.75L439.766 235.386C439.955 234.856 440.232 234.428 440.595 234.102C440.963 233.773 441.385 233.534 441.862 233.386C442.339 233.235 442.841 233.159 443.368 233.159C443.716 233.159 444.086 233.201 444.476 233.284C444.87 233.364 445.237 233.511 445.578 233.727C445.923 233.943 446.205 234.252 446.425 234.653C446.644 235.051 446.754 235.568 446.754 236.205V242H445.095V240.807H445.027C444.917 241.027 444.752 241.242 444.533 241.455C444.313 241.667 444.031 241.843 443.686 241.983C443.341 242.123 442.929 242.193 442.447 242.193ZM442.817 240.83C443.286 240.83 443.688 240.737 444.021 240.551C444.358 240.366 444.614 240.123 444.788 239.824C444.966 239.521 445.055 239.197 445.055 238.852V237.727C444.995 237.788 444.877 237.845 444.703 237.898C444.533 237.947 444.338 237.991 444.118 238.028C443.898 238.062 443.684 238.095 443.476 238.125C443.268 238.152 443.093 238.174 442.953 238.193C442.624 238.235 442.322 238.305 442.05 238.403C441.781 238.502 441.565 238.644 441.402 238.83C441.243 239.011 441.163 239.254 441.163 239.557C441.163 239.977 441.319 240.295 441.629 240.511C441.94 240.723 442.336 240.83 442.817 240.83ZM453.091 233.273V234.636H448.324V233.273H453.091ZM449.602 231.182H451.301V239.438C451.301 239.767 451.35 240.015 451.449 240.182C451.547 240.345 451.674 240.456 451.83 240.517C451.989 240.574 452.161 240.602 452.347 240.602C452.483 240.602 452.602 240.593 452.705 240.574C452.807 240.555 452.886 240.54 452.943 240.528L453.25 241.932C453.152 241.97 453.011 242.008 452.83 242.045C452.648 242.087 452.42 242.11 452.148 242.114C451.701 242.121 451.284 242.042 450.898 241.875C450.511 241.708 450.199 241.451 449.96 241.102C449.722 240.754 449.602 240.316 449.602 239.79V231.182ZM458.553 242.176C457.708 242.176 456.981 241.985 456.371 241.602C455.765 241.216 455.299 240.684 454.973 240.006C454.647 239.328 454.484 238.551 454.484 237.676C454.484 236.79 454.651 236.008 454.984 235.33C455.318 234.648 455.787 234.116 456.393 233.733C457 233.35 457.714 233.159 458.536 233.159C459.198 233.159 459.789 233.282 460.308 233.528C460.827 233.771 461.246 234.112 461.564 234.551C461.886 234.991 462.077 235.504 462.138 236.091H460.484C460.393 235.682 460.185 235.33 459.859 235.034C459.537 234.739 459.106 234.591 458.564 234.591C458.09 234.591 457.676 234.716 457.32 234.966C456.967 235.212 456.693 235.564 456.496 236.023C456.299 236.477 456.2 237.015 456.2 237.636C456.2 238.273 456.297 238.822 456.49 239.284C456.683 239.746 456.956 240.104 457.308 240.358C457.664 240.612 458.083 240.739 458.564 240.739C458.886 240.739 459.178 240.68 459.439 240.562C459.704 240.441 459.926 240.269 460.104 240.045C460.286 239.822 460.412 239.553 460.484 239.239H462.138C462.077 239.803 461.893 240.307 461.587 240.75C461.28 241.193 460.869 241.542 460.354 241.795C459.842 242.049 459.242 242.176 458.553 242.176ZM465.653 236.818V242H463.955V230.364H465.631V234.693H465.739C465.943 234.223 466.256 233.85 466.676 233.574C467.097 233.297 467.646 233.159 468.324 233.159C468.922 233.159 469.445 233.282 469.892 233.528C470.343 233.775 470.691 234.142 470.938 234.631C471.188 235.116 471.312 235.722 471.312 236.449V242H469.614V236.653C469.614 236.013 469.449 235.517 469.119 235.165C468.79 234.809 468.331 234.631 467.744 234.631C467.343 234.631 466.983 234.716 466.665 234.886C466.35 235.057 466.102 235.307 465.92 235.636C465.742 235.962 465.653 236.356 465.653 236.818ZM477.341 242.176C476.481 242.176 475.741 241.992 475.119 241.625C474.502 241.254 474.025 240.733 473.688 240.062C473.354 239.388 473.188 238.598 473.188 237.693C473.188 236.799 473.354 236.011 473.688 235.33C474.025 234.648 474.494 234.116 475.097 233.733C475.703 233.35 476.411 233.159 477.222 233.159C477.714 233.159 478.191 233.241 478.653 233.403C479.116 233.566 479.53 233.822 479.898 234.17C480.265 234.519 480.555 234.972 480.767 235.528C480.979 236.081 481.085 236.754 481.085 237.545V238.148H474.148V236.875H479.42C479.42 236.428 479.33 236.032 479.148 235.688C478.966 235.339 478.71 235.064 478.381 234.864C478.055 234.663 477.672 234.562 477.233 234.562C476.756 234.562 476.339 234.68 475.983 234.915C475.631 235.146 475.358 235.449 475.165 235.824C474.975 236.195 474.881 236.598 474.881 237.034V238.028C474.881 238.612 474.983 239.108 475.188 239.517C475.396 239.926 475.686 240.239 476.057 240.455C476.428 240.667 476.862 240.773 477.358 240.773C477.68 240.773 477.973 240.727 478.239 240.636C478.504 240.542 478.733 240.402 478.926 240.216C479.119 240.03 479.267 239.801 479.369 239.528L480.977 239.818C480.848 240.292 480.617 240.706 480.284 241.062C479.955 241.415 479.54 241.689 479.04 241.886C478.544 242.08 477.977 242.176 477.341 242.176ZM489.51 235.403L487.97 235.676C487.906 235.479 487.804 235.292 487.663 235.114C487.527 234.936 487.341 234.79 487.107 234.676C486.872 234.562 486.578 234.506 486.226 234.506C485.745 234.506 485.343 234.614 485.021 234.83C484.699 235.042 484.538 235.316 484.538 235.653C484.538 235.945 484.646 236.18 484.862 236.358C485.078 236.536 485.427 236.682 485.908 236.795L487.294 237.114C488.097 237.299 488.696 237.585 489.089 237.972C489.483 238.358 489.68 238.86 489.68 239.477C489.68 240 489.529 240.466 489.226 240.875C488.927 241.28 488.508 241.598 487.97 241.83C487.436 242.061 486.817 242.176 486.112 242.176C485.135 242.176 484.338 241.968 483.72 241.551C483.103 241.131 482.724 240.534 482.584 239.761L484.226 239.511C484.328 239.939 484.538 240.263 484.857 240.483C485.175 240.699 485.589 240.807 486.101 240.807C486.658 240.807 487.103 240.691 487.436 240.46C487.769 240.225 487.936 239.939 487.936 239.602C487.936 239.33 487.834 239.1 487.629 238.915C487.429 238.729 487.12 238.589 486.703 238.494L485.226 238.17C484.411 237.985 483.809 237.689 483.419 237.284C483.033 236.879 482.839 236.366 482.839 235.744C482.839 235.229 482.983 234.778 483.271 234.392C483.559 234.006 483.957 233.705 484.464 233.489C484.972 233.269 485.554 233.159 486.209 233.159C487.152 233.159 487.894 233.364 488.436 233.773C488.978 234.178 489.336 234.722 489.51 235.403Z" fill="black"/>
<rect x="544" y="144" width="160" height="128" rx="15" fill="#EDEDED"/>
<g clip-path="url(#clip2_248_2033)">
<path d="M610 182H612C613.061 182 614.078 181.579 614.828 180.828C615.579 180.078 616 179.061 616 178C616 177.47 616.211 176.961 616.586 176.586C616.961 176.211 617.47 176 618 176H630C630.53 176 631.039 176.211 631.414 176.586C631.789 176.961 632 177.47 632 178C632 179.061 632.421 180.078 633.172 180.828C633.922 181.579 634.939 182 636 182H638C639.061 182 640.078 182.421 640.828 183.172C641.579 183.922 642 184.939 642 186V204C642 205.061 641.579 206.078 640.828 206.828C640.078 207.579 639.061 208 638 208H610C608.939 208 607.922 207.579 607.172 206.828C606.421 206.078 606 205.061 606 204V186C606 184.939 606.421 183.922 607.172 183.172C607.922 182.421 608.939 182 610 182" stroke="black" stroke-width="2" stroke-linecap="round" stroke-linejoin="round"/>
<path d="M624 200C627.314 200 630 197.314 630 194C630 190.686 627.314 188 624 188C620.686 188 618 190.686 618 194C618 197.314 620.686 200 624 200Z" stroke="black" stroke-width="2" stroke-linecap="round" stroke-linejoin="round"/>
</g>
<path d="M600.865 234.148H599.092C599.024 233.769 598.897 233.436 598.712 233.148C598.526 232.86 598.299 232.616 598.03 232.415C597.761 232.214 597.46 232.062 597.126 231.96C596.797 231.858 596.446 231.807 596.075 231.807C595.405 231.807 594.804 231.975 594.274 232.312C593.748 232.65 593.331 233.144 593.024 233.795C592.721 234.447 592.57 235.242 592.57 236.182C592.57 237.129 592.721 237.928 593.024 238.58C593.331 239.231 593.75 239.723 594.28 240.057C594.81 240.39 595.407 240.557 596.07 240.557C596.437 240.557 596.786 240.508 597.115 240.409C597.448 240.307 597.75 240.157 598.018 239.96C598.287 239.763 598.515 239.523 598.7 239.239C598.89 238.951 599.02 238.621 599.092 238.25L600.865 238.256C600.77 238.828 600.587 239.354 600.314 239.835C600.045 240.312 599.698 240.725 599.274 241.074C598.854 241.419 598.373 241.686 597.831 241.875C597.289 242.064 596.698 242.159 596.058 242.159C595.051 242.159 594.153 241.92 593.365 241.443C592.577 240.962 591.956 240.275 591.501 239.381C591.051 238.487 590.825 237.42 590.825 236.182C590.825 234.939 591.053 233.873 591.507 232.983C591.962 232.089 592.583 231.403 593.371 230.926C594.159 230.445 595.054 230.205 596.058 230.205C596.676 230.205 597.251 230.294 597.786 230.472C598.323 230.646 598.806 230.903 599.234 231.244C599.662 231.581 600.017 231.994 600.297 232.483C600.577 232.968 600.767 233.523 600.865 234.148ZM605.369 242.193C604.816 242.193 604.316 242.091 603.869 241.886C603.422 241.678 603.068 241.377 602.807 240.983C602.549 240.589 602.42 240.106 602.42 239.534C602.42 239.042 602.515 238.636 602.705 238.318C602.894 238 603.15 237.748 603.472 237.562C603.794 237.377 604.153 237.237 604.551 237.142C604.949 237.047 605.354 236.975 605.767 236.926C606.29 236.866 606.714 236.816 607.04 236.778C607.366 236.737 607.602 236.67 607.75 236.58C607.898 236.489 607.972 236.341 607.972 236.136V236.097C607.972 235.6 607.831 235.216 607.551 234.943C607.275 234.67 606.862 234.534 606.312 234.534C605.741 234.534 605.29 234.661 604.96 234.915C604.634 235.165 604.409 235.443 604.284 235.75L602.688 235.386C602.877 234.856 603.153 234.428 603.517 234.102C603.884 233.773 604.307 233.534 604.784 233.386C605.261 233.235 605.763 233.159 606.29 233.159C606.638 233.159 607.008 233.201 607.398 233.284C607.792 233.364 608.159 233.511 608.5 233.727C608.845 233.943 609.127 234.252 609.347 234.653C609.566 235.051 609.676 235.568 609.676 236.205V242H608.017V240.807H607.949C607.839 241.027 607.674 241.242 607.455 241.455C607.235 241.667 606.953 241.843 606.608 241.983C606.263 242.123 605.85 242.193 605.369 242.193ZM605.739 240.83C606.208 240.83 606.61 240.737 606.943 240.551C607.28 240.366 607.536 240.123 607.71 239.824C607.888 239.521 607.977 239.197 607.977 238.852V237.727C607.917 237.788 607.799 237.845 607.625 237.898C607.455 237.947 607.259 237.991 607.04 238.028C606.82 238.062 606.606 238.095 606.398 238.125C606.189 238.152 606.015 238.174 605.875 238.193C605.545 238.235 605.244 238.305 604.972 238.403C604.703 238.502 604.487 238.644 604.324 238.83C604.165 239.011 604.085 239.254 604.085 239.557C604.085 239.977 604.241 240.295 604.551 240.511C604.862 240.723 605.258 240.83 605.739 240.83ZM611.939 242V233.273H613.57V234.693H613.678C613.859 234.212 614.157 233.837 614.57 233.568C614.982 233.295 615.477 233.159 616.053 233.159C616.636 233.159 617.125 233.295 617.518 233.568C617.916 233.841 618.21 234.216 618.399 234.693H618.49C618.698 234.227 619.03 233.856 619.484 233.58C619.939 233.299 620.481 233.159 621.109 233.159C621.901 233.159 622.547 233.407 623.047 233.903C623.551 234.4 623.803 235.148 623.803 236.148V242H622.104V236.307C622.104 235.716 621.943 235.288 621.621 235.023C621.299 234.758 620.914 234.625 620.467 234.625C619.914 234.625 619.484 234.795 619.178 235.136C618.871 235.473 618.717 235.907 618.717 236.438V242H617.024V236.199C617.024 235.725 616.876 235.345 616.581 235.057C616.286 234.769 615.901 234.625 615.428 234.625C615.106 234.625 614.808 234.71 614.536 234.881C614.267 235.047 614.049 235.28 613.882 235.58C613.719 235.879 613.638 236.225 613.638 236.619V242H611.939ZM629.841 242.176C628.981 242.176 628.241 241.992 627.619 241.625C627.002 241.254 626.525 240.733 626.188 240.062C625.854 239.388 625.688 238.598 625.688 237.693C625.688 236.799 625.854 236.011 626.188 235.33C626.525 234.648 626.994 234.116 627.597 233.733C628.203 233.35 628.911 233.159 629.722 233.159C630.214 233.159 630.691 233.241 631.153 233.403C631.616 233.566 632.03 233.822 632.398 234.17C632.765 234.519 633.055 234.972 633.267 235.528C633.479 236.081 633.585 236.754 633.585 237.545V238.148H626.648V236.875H631.92C631.92 236.428 631.83 236.032 631.648 235.688C631.466 235.339 631.21 235.064 630.881 234.864C630.555 234.663 630.172 234.562 629.733 234.562C629.256 234.562 628.839 234.68 628.483 234.915C628.131 235.146 627.858 235.449 627.665 235.824C627.475 236.195 627.381 236.598 627.381 237.034V238.028C627.381 238.612 627.483 239.108 627.688 239.517C627.896 239.926 628.186 240.239 628.557 240.455C628.928 240.667 629.362 240.773 629.858 240.773C630.18 240.773 630.473 240.727 630.739 240.636C631.004 240.542 631.233 240.402 631.426 240.216C631.619 240.03 631.767 239.801 631.869 239.528L633.477 239.818C633.348 240.292 633.117 240.706 632.784 241.062C632.455 241.415 632.04 241.689 631.54 241.886C631.044 242.08 630.477 242.176 629.841 242.176ZM635.47 242V233.273H637.112V234.659H637.203C637.362 234.189 637.643 233.82 638.044 233.551C638.449 233.278 638.908 233.142 639.419 233.142C639.525 233.142 639.65 233.146 639.794 233.153C639.942 233.161 640.057 233.17 640.141 233.182V234.807C640.072 234.788 639.951 234.767 639.777 234.744C639.603 234.718 639.429 234.705 639.254 234.705C638.853 234.705 638.495 234.79 638.18 234.96C637.87 235.127 637.624 235.36 637.442 235.659C637.26 235.955 637.169 236.292 637.169 236.67V242H635.47ZM644.072 242.193C643.519 242.193 643.019 242.091 642.572 241.886C642.125 241.678 641.771 241.377 641.51 240.983C641.252 240.589 641.124 240.106 641.124 239.534C641.124 239.042 641.218 238.636 641.408 238.318C641.597 238 641.853 237.748 642.175 237.562C642.497 237.377 642.857 237.237 643.254 237.142C643.652 237.047 644.057 236.975 644.47 236.926C644.993 236.866 645.417 236.816 645.743 236.778C646.069 236.737 646.305 236.67 646.453 236.58C646.601 236.489 646.675 236.341 646.675 236.136V236.097C646.675 235.6 646.535 235.216 646.254 234.943C645.978 234.67 645.565 234.534 645.016 234.534C644.444 234.534 643.993 234.661 643.663 234.915C643.338 235.165 643.112 235.443 642.987 235.75L641.391 235.386C641.58 234.856 641.857 234.428 642.22 234.102C642.588 233.773 643.01 233.534 643.487 233.386C643.964 233.235 644.466 233.159 644.993 233.159C645.341 233.159 645.711 233.201 646.101 233.284C646.495 233.364 646.862 233.511 647.203 233.727C647.548 233.943 647.83 234.252 648.05 234.653C648.269 235.051 648.379 235.568 648.379 236.205V242H646.72V240.807H646.652C646.542 241.027 646.377 241.242 646.158 241.455C645.938 241.667 645.656 241.843 645.311 241.983C644.966 242.123 644.554 242.193 644.072 242.193ZM644.442 240.83C644.911 240.83 645.313 240.737 645.646 240.551C645.983 240.366 646.239 240.123 646.413 239.824C646.591 239.521 646.68 239.197 646.68 238.852V237.727C646.62 237.788 646.502 237.845 646.328 237.898C646.158 237.947 645.963 237.991 645.743 238.028C645.523 238.062 645.309 238.095 645.101 238.125C644.893 238.152 644.718 238.174 644.578 238.193C644.249 238.235 643.947 238.305 643.675 238.403C643.406 238.502 643.19 238.644 643.027 238.83C642.868 239.011 642.788 239.254 642.788 239.557C642.788 239.977 642.944 240.295 643.254 240.511C643.565 240.723 643.961 240.83 644.442 240.83ZM657.182 235.403L655.642 235.676C655.578 235.479 655.475 235.292 655.335 235.114C655.199 234.936 655.013 234.79 654.778 234.676C654.544 234.562 654.25 234.506 653.898 234.506C653.417 234.506 653.015 234.614 652.693 234.83C652.371 235.042 652.21 235.316 652.21 235.653C652.21 235.945 652.318 236.18 652.534 236.358C652.75 236.536 653.098 236.682 653.58 236.795L654.966 237.114C655.769 237.299 656.367 237.585 656.761 237.972C657.155 238.358 657.352 238.86 657.352 239.477C657.352 240 657.201 240.466 656.898 240.875C656.598 241.28 656.18 241.598 655.642 241.83C655.108 242.061 654.489 242.176 653.784 242.176C652.807 242.176 652.009 241.968 651.392 241.551C650.775 241.131 650.396 240.534 650.256 239.761L651.898 239.511C652 239.939 652.21 240.263 652.528 240.483C652.847 240.699 653.261 240.807 653.773 240.807C654.33 240.807 654.775 240.691 655.108 240.46C655.441 240.225 655.608 239.939 655.608 239.602C655.608 239.33 655.506 239.1 655.301 238.915C655.1 238.729 654.792 238.589 654.375 238.494L652.898 238.17C652.083 237.985 651.481 237.689 651.091 237.284C650.705 236.879 650.511 236.366 650.511 235.744C650.511 235.229 650.655 234.778 650.943 234.392C651.231 234.006 651.629 233.705 652.136 233.489C652.644 233.269 653.225 233.159 653.881 233.159C654.824 233.159 655.566 233.364 656.108 233.773C656.65 234.178 657.008 234.722 657.182 235.403Z" fill="black"/>
<rect x="736" y="144" width="160" height="128" rx="15" fill="#EDEDED"/>
<g clip-path="url(#clip3_248_2033)">
<path d="M806 194H804C801.791 194 800 195.791 800 198V204C800 206.209 801.791 208 804 208H806C808.209 208 810 206.209 810 204V198C810 195.791 808.209 194 806 194Z" stroke="black" stroke-width="2" stroke-linecap="round" stroke-linejoin="round"/>
<path d="M828 194H826C823.791 194 822 195.791 822 198V204C822 206.209 823.791 208 826 208H828C830.209 208 832 206.209 832 204V198C832 195.791 830.209 194 828 194Z" stroke="black" stroke-width="2" stroke-linecap="round" stroke-linejoin="round"/>
<path d="M800 198V192C800 187.757 801.686 183.687 804.686 180.686C807.687 177.686 811.757 176 816 176C820.243 176 824.313 177.686 827.314 180.686C830.314 183.687 832 187.757 832 192V198" stroke="black" stroke-width="2" stroke-linecap="round" stroke-linejoin="round"/>
</g>
<path d="M768.747 242V230.364H770.503V235.42H776.304V230.364H778.065V242H776.304V236.926H770.503V242H768.747ZM784.247 242.176C783.387 242.176 782.647 241.992 782.026 241.625C781.408 241.254 780.931 240.733 780.594 240.062C780.26 239.388 780.094 238.598 780.094 237.693C780.094 236.799 780.26 236.011 780.594 235.33C780.931 234.648 781.401 234.116 782.003 233.733C782.609 233.35 783.317 233.159 784.128 233.159C784.62 233.159 785.098 233.241 785.56 233.403C786.022 233.566 786.437 233.822 786.804 234.17C787.171 234.519 787.461 234.972 787.673 235.528C787.885 236.081 787.991 236.754 787.991 237.545V238.148H781.054V236.875H786.327C786.327 236.428 786.236 236.032 786.054 235.688C785.872 235.339 785.616 235.064 785.287 234.864C784.961 234.663 784.579 234.562 784.139 234.562C783.662 234.562 783.245 234.68 782.889 234.915C782.537 235.146 782.264 235.449 782.071 235.824C781.882 236.195 781.787 236.598 781.787 237.034V238.028C781.787 238.612 781.889 239.108 782.094 239.517C782.302 239.926 782.592 240.239 782.963 240.455C783.334 240.667 783.768 240.773 784.264 240.773C784.586 240.773 784.88 240.727 785.145 240.636C785.41 240.542 785.639 240.402 785.832 240.216C786.026 240.03 786.173 239.801 786.276 239.528L787.884 239.818C787.755 240.292 787.524 240.706 787.19 241.062C786.861 241.415 786.446 241.689 785.946 241.886C785.45 242.08 784.884 242.176 784.247 242.176ZM792.416 242.193C791.863 242.193 791.363 242.091 790.916 241.886C790.469 241.678 790.115 241.377 789.854 240.983C789.596 240.589 789.467 240.106 789.467 239.534C789.467 239.042 789.562 238.636 789.751 238.318C789.941 238 790.196 237.748 790.518 237.562C790.84 237.377 791.2 237.237 791.598 237.142C791.996 237.047 792.401 236.975 792.814 236.926C793.337 236.866 793.761 236.816 794.087 236.778C794.412 236.737 794.649 236.67 794.797 236.58C794.945 236.489 795.018 236.341 795.018 236.136V236.097C795.018 235.6 794.878 235.216 794.598 234.943C794.321 234.67 793.909 234.534 793.359 234.534C792.787 234.534 792.337 234.661 792.007 234.915C791.681 235.165 791.456 235.443 791.331 235.75L789.734 235.386C789.924 234.856 790.2 234.428 790.564 234.102C790.931 233.773 791.354 233.534 791.831 233.386C792.308 233.235 792.81 233.159 793.337 233.159C793.685 233.159 794.054 233.201 794.445 233.284C794.839 233.364 795.206 233.511 795.547 233.727C795.892 233.943 796.174 234.252 796.393 234.653C796.613 235.051 796.723 235.568 796.723 236.205V242H795.064V240.807H794.996C794.886 241.027 794.721 241.242 794.501 241.455C794.282 241.667 794 241.843 793.655 241.983C793.31 242.123 792.897 242.193 792.416 242.193ZM792.786 240.83C793.255 240.83 793.657 240.737 793.99 240.551C794.327 240.366 794.583 240.123 794.757 239.824C794.935 239.521 795.024 239.197 795.024 238.852V237.727C794.964 237.788 794.846 237.845 794.672 237.898C794.501 237.947 794.306 237.991 794.087 238.028C793.867 238.062 793.653 238.095 793.445 238.125C793.236 238.152 793.062 238.174 792.922 238.193C792.592 238.235 792.291 238.305 792.018 238.403C791.75 238.502 791.534 238.644 791.371 238.83C791.212 239.011 791.132 239.254 791.132 239.557C791.132 239.977 791.287 240.295 791.598 240.511C791.909 240.723 792.304 240.83 792.786 240.83ZM802.253 242.17C801.548 242.17 800.92 241.991 800.366 241.631C799.817 241.267 799.385 240.75 799.071 240.08C798.76 239.405 798.605 238.597 798.605 237.653C798.605 236.71 798.762 235.903 799.077 235.233C799.395 234.562 799.83 234.049 800.384 233.693C800.937 233.337 801.563 233.159 802.264 233.159C802.806 233.159 803.241 233.25 803.571 233.432C803.904 233.61 804.162 233.818 804.344 234.057C804.529 234.295 804.673 234.506 804.776 234.688H804.878V230.364H806.577V242H804.918V240.642H804.776C804.673 240.828 804.526 241.04 804.332 241.278C804.143 241.517 803.882 241.725 803.548 241.903C803.215 242.081 802.783 242.17 802.253 242.17ZM802.628 240.722C803.116 240.722 803.529 240.593 803.866 240.335C804.207 240.074 804.465 239.712 804.639 239.25C804.817 238.788 804.906 238.25 804.906 237.636C804.906 237.03 804.819 236.5 804.645 236.045C804.471 235.591 804.215 235.237 803.878 234.983C803.541 234.729 803.124 234.602 802.628 234.602C802.116 234.602 801.69 234.735 801.349 235C801.009 235.265 800.751 235.627 800.577 236.085C800.406 236.544 800.321 237.061 800.321 237.636C800.321 238.22 800.408 238.744 800.582 239.21C800.757 239.676 801.014 240.045 801.355 240.318C801.7 240.587 802.124 240.722 802.628 240.722ZM809.001 245.273V233.273H810.661V234.688H810.803C810.901 234.506 811.043 234.295 811.229 234.057C811.414 233.818 811.672 233.61 812.001 233.432C812.331 233.25 812.767 233.159 813.308 233.159C814.013 233.159 814.642 233.337 815.195 233.693C815.748 234.049 816.181 234.562 816.496 235.233C816.814 235.903 816.973 236.71 816.973 237.653C816.973 238.597 816.816 239.405 816.501 240.08C816.187 240.75 815.755 241.267 815.206 241.631C814.657 241.991 814.03 242.17 813.325 242.17C812.795 242.17 812.361 242.081 812.024 241.903C811.691 241.725 811.429 241.517 811.24 241.278C811.051 241.04 810.905 240.828 810.803 240.642H810.7V245.273H809.001ZM810.666 237.636C810.666 238.25 810.755 238.788 810.933 239.25C811.111 239.712 811.369 240.074 811.706 240.335C812.043 240.593 812.456 240.722 812.945 240.722C813.452 240.722 813.876 240.587 814.217 240.318C814.558 240.045 814.816 239.676 814.99 239.21C815.168 238.744 815.257 238.22 815.257 237.636C815.257 237.061 815.17 236.544 814.996 236.085C814.825 235.627 814.568 235.265 814.223 235C813.882 234.735 813.456 234.602 812.945 234.602C812.452 234.602 812.036 234.729 811.695 234.983C811.357 235.237 811.102 235.591 810.928 236.045C810.753 236.5 810.666 237.03 810.666 237.636ZM820.575 236.818V242H818.876V230.364H820.553V234.693H820.661C820.865 234.223 821.178 233.85 821.598 233.574C822.018 233.297 822.568 233.159 823.246 233.159C823.844 233.159 824.367 233.282 824.814 233.528C825.265 233.775 825.613 234.142 825.859 234.631C826.109 235.116 826.234 235.722 826.234 236.449V242H824.536V236.653C824.536 236.013 824.371 235.517 824.041 235.165C823.712 234.809 823.253 234.631 822.666 234.631C822.265 234.631 821.905 234.716 821.587 234.886C821.272 235.057 821.024 235.307 820.842 235.636C820.664 235.962 820.575 236.356 820.575 236.818ZM832.178 242.176C831.359 242.176 830.645 241.989 830.036 241.614C829.426 241.239 828.952 240.714 828.615 240.04C828.278 239.366 828.109 238.578 828.109 237.676C828.109 236.771 828.278 235.979 828.615 235.301C828.952 234.623 829.426 234.097 830.036 233.722C830.645 233.347 831.359 233.159 832.178 233.159C832.996 233.159 833.71 233.347 834.32 233.722C834.929 234.097 835.403 234.623 835.74 235.301C836.077 235.979 836.246 236.771 836.246 237.676C836.246 238.578 836.077 239.366 835.74 240.04C835.403 240.714 834.929 241.239 834.32 241.614C833.71 241.989 832.996 242.176 832.178 242.176ZM832.183 240.75C832.714 240.75 833.153 240.61 833.501 240.33C833.85 240.049 834.107 239.676 834.274 239.21C834.445 238.744 834.53 238.231 834.53 237.67C834.53 237.114 834.445 236.602 834.274 236.136C834.107 235.667 833.85 235.29 833.501 235.006C833.153 234.722 832.714 234.58 832.183 234.58C831.649 234.58 831.206 234.722 830.854 235.006C830.505 235.29 830.246 235.667 830.075 236.136C829.909 236.602 829.825 237.114 829.825 237.67C829.825 238.231 829.909 238.744 830.075 239.21C830.246 239.676 830.505 240.049 830.854 240.33C831.206 240.61 831.649 240.75 832.183 240.75ZM839.841 236.818V242H838.142V233.273H839.773V234.693H839.881C840.081 234.231 840.396 233.86 840.824 233.58C841.256 233.299 841.799 233.159 842.455 233.159C843.049 233.159 843.57 233.284 844.017 233.534C844.464 233.78 844.811 234.148 845.057 234.636C845.303 235.125 845.426 235.729 845.426 236.449V242H843.727V236.653C843.727 236.021 843.563 235.527 843.233 235.17C842.903 234.811 842.451 234.631 841.875 234.631C841.481 234.631 841.131 234.716 840.824 234.886C840.521 235.057 840.28 235.307 840.102 235.636C839.928 235.962 839.841 236.356 839.841 236.818ZM851.466 242.176C850.606 242.176 849.866 241.992 849.244 241.625C848.627 241.254 848.15 240.733 847.812 240.062C847.479 239.388 847.312 238.598 847.312 237.693C847.312 236.799 847.479 236.011 847.812 235.33C848.15 234.648 848.619 234.116 849.222 233.733C849.828 233.35 850.536 233.159 851.347 233.159C851.839 233.159 852.316 233.241 852.778 233.403C853.241 233.566 853.655 233.822 854.023 234.17C854.39 234.519 854.68 234.972 854.892 235.528C855.104 236.081 855.21 236.754 855.21 237.545V238.148H848.273V236.875H853.545C853.545 236.428 853.455 236.032 853.273 235.688C853.091 235.339 852.835 235.064 852.506 234.864C852.18 234.663 851.797 234.562 851.358 234.562C850.881 234.562 850.464 234.68 850.108 234.915C849.756 235.146 849.483 235.449 849.29 235.824C849.1 236.195 849.006 236.598 849.006 237.034V238.028C849.006 238.612 849.108 239.108 849.312 239.517C849.521 239.926 849.811 240.239 850.182 240.455C850.553 240.667 850.987 240.773 851.483 240.773C851.805 240.773 852.098 240.727 852.364 240.636C852.629 240.542 852.858 240.402 853.051 240.216C853.244 240.03 853.392 239.801 853.494 239.528L855.102 239.818C854.973 240.292 854.742 240.706 854.409 241.062C854.08 241.415 853.665 241.689 853.165 241.886C852.669 242.08 852.102 242.176 851.466 242.176ZM863.635 235.403L862.095 235.676C862.031 235.479 861.929 235.292 861.788 235.114C861.652 234.936 861.466 234.79 861.232 234.676C860.997 234.562 860.703 234.506 860.351 234.506C859.87 234.506 859.468 234.614 859.146 234.83C858.824 235.042 858.663 235.316 858.663 235.653C858.663 235.945 858.771 236.18 858.987 236.358C859.203 236.536 859.552 236.682 860.033 236.795L861.419 237.114C862.222 237.299 862.821 237.585 863.214 237.972C863.608 238.358 863.805 238.86 863.805 239.477C863.805 240 863.654 240.466 863.351 240.875C863.052 241.28 862.633 241.598 862.095 241.83C861.561 242.061 860.942 242.176 860.237 242.176C859.26 242.176 858.463 241.968 857.845 241.551C857.228 241.131 856.849 240.534 856.709 239.761L858.351 239.511C858.453 239.939 858.663 240.263 858.982 240.483C859.3 240.699 859.714 240.807 860.226 240.807C860.783 240.807 861.228 240.691 861.561 240.46C861.894 240.225 862.061 239.939 862.061 239.602C862.061 239.33 861.959 239.1 861.754 238.915C861.554 238.729 861.245 238.589 860.828 238.494L859.351 238.17C858.536 237.985 857.934 237.689 857.544 237.284C857.158 236.879 856.964 236.366 856.964 235.744C856.964 235.229 857.108 234.778 857.396 234.392C857.684 234.006 858.082 233.705 858.589 233.489C859.097 233.269 859.679 233.159 860.334 233.159C861.277 233.159 862.019 233.364 862.561 233.773C863.103 234.178 863.461 234.722 863.635 235.403Z" fill="black"/>
<rect x="928" y="144" width="160" height="128" rx="15" fill="#EDEDED"/>
<g clip-path="url(#clip4_248_2033)">
<path d="M1024 176H992C990.895 176 990 176.895 990 178V198C990 199.105 990.895 200 992 200H1024C1025.1 200 1026 199.105 1026 198V178C1026 176.895 1025.1 176 1024 176Z" stroke="black" stroke-width="2" stroke-linecap="round" stroke-linejoin="round"/>
<path d="M998 208H1018" stroke="black" stroke-width="2" stroke-linecap="round" stroke-linejoin="round"/>
<path d="M1002 200V208" stroke="black" stroke-width="2" stroke-linecap="round" stroke-linejoin="round"/>
<path d="M1014 200V208" stroke="black" stroke-width="2" stroke-linecap="round" stroke-linejoin="round"/>
<path d="M990.857 195.429H1025.14" stroke="black" stroke-width="2" stroke-linecap="round"/>
</g>
<path d="M976.49 234.148H974.717C974.649 233.769 974.522 233.436 974.337 233.148C974.151 232.86 973.924 232.616 973.655 232.415C973.386 232.214 973.085 232.062 972.751 231.96C972.422 231.858 972.071 231.807 971.7 231.807C971.03 231.807 970.429 231.975 969.899 232.312C969.373 232.65 968.956 233.144 968.649 233.795C968.346 234.447 968.195 235.242 968.195 236.182C968.195 237.129 968.346 237.928 968.649 238.58C968.956 239.231 969.375 239.723 969.905 240.057C970.435 240.39 971.032 240.557 971.695 240.557C972.062 240.557 972.411 240.508 972.74 240.409C973.073 240.307 973.375 240.157 973.643 239.96C973.912 239.763 974.14 239.523 974.325 239.239C974.515 238.951 974.645 238.621 974.717 238.25L976.49 238.256C976.395 238.828 976.212 239.354 975.939 239.835C975.67 240.312 975.323 240.725 974.899 241.074C974.479 241.419 973.998 241.686 973.456 241.875C972.914 242.064 972.323 242.159 971.683 242.159C970.676 242.159 969.778 241.92 968.99 241.443C968.202 240.962 967.581 240.275 967.126 239.381C966.676 238.487 966.45 237.42 966.45 236.182C966.45 234.939 966.678 233.873 967.132 232.983C967.587 232.089 968.208 231.403 968.996 230.926C969.784 230.445 970.679 230.205 971.683 230.205C972.301 230.205 972.876 230.294 973.411 230.472C973.948 230.646 974.431 230.903 974.859 231.244C975.287 231.581 975.642 231.994 975.922 232.483C976.202 232.968 976.392 233.523 976.49 234.148ZM982.131 242.176C981.313 242.176 980.598 241.989 979.989 241.614C979.379 241.239 978.905 240.714 978.568 240.04C978.231 239.366 978.062 238.578 978.062 237.676C978.062 236.771 978.231 235.979 978.568 235.301C978.905 234.623 979.379 234.097 979.989 233.722C980.598 233.347 981.313 233.159 982.131 233.159C982.949 233.159 983.663 233.347 984.273 233.722C984.883 234.097 985.356 234.623 985.693 235.301C986.03 235.979 986.199 236.771 986.199 237.676C986.199 238.578 986.03 239.366 985.693 240.04C985.356 240.714 984.883 241.239 984.273 241.614C983.663 241.989 982.949 242.176 982.131 242.176ZM982.136 240.75C982.667 240.75 983.106 240.61 983.455 240.33C983.803 240.049 984.061 239.676 984.227 239.21C984.398 238.744 984.483 238.231 984.483 237.67C984.483 237.114 984.398 236.602 984.227 236.136C984.061 235.667 983.803 235.29 983.455 235.006C983.106 234.722 982.667 234.58 982.136 234.58C981.602 234.58 981.159 234.722 980.807 235.006C980.458 235.29 980.199 235.667 980.028 236.136C979.862 236.602 979.778 237.114 979.778 237.67C979.778 238.231 979.862 238.744 980.028 239.21C980.199 239.676 980.458 240.049 980.807 240.33C981.159 240.61 981.602 240.75 982.136 240.75ZM988.095 242V233.273H989.726V234.693H989.834C990.016 234.212 990.313 233.837 990.726 233.568C991.139 233.295 991.633 233.159 992.209 233.159C992.792 233.159 993.281 233.295 993.675 233.568C994.072 233.841 994.366 234.216 994.555 234.693H994.646C994.855 234.227 995.186 233.856 995.641 233.58C996.095 233.299 996.637 233.159 997.266 233.159C998.057 233.159 998.703 233.407 999.203 233.903C999.707 234.4 999.959 235.148 999.959 236.148V242H998.26V236.307C998.26 235.716 998.099 235.288 997.777 235.023C997.455 234.758 997.071 234.625 996.624 234.625C996.071 234.625 995.641 234.795 995.334 235.136C995.027 235.473 994.874 235.907 994.874 236.438V242H993.18V236.199C993.18 235.725 993.033 235.345 992.737 235.057C992.442 234.769 992.057 234.625 991.584 234.625C991.262 234.625 990.964 234.71 990.692 234.881C990.423 235.047 990.205 235.28 990.038 235.58C989.875 235.879 989.794 236.225 989.794 236.619V242H988.095ZM1002.24 245.273V233.273H1003.89V234.688H1004.04C1004.14 234.506 1004.28 234.295 1004.46 234.057C1004.65 233.818 1004.91 233.61 1005.24 233.432C1005.57 233.25 1006 233.159 1006.54 233.159C1007.25 233.159 1007.88 233.337 1008.43 233.693C1008.98 234.049 1009.42 234.562 1009.73 235.233C1010.05 235.903 1010.21 236.71 1010.21 237.653C1010.21 238.597 1010.05 239.405 1009.74 240.08C1009.42 240.75 1008.99 241.267 1008.44 241.631C1007.89 241.991 1007.26 242.17 1006.56 242.17C1006.03 242.17 1005.6 242.081 1005.26 241.903C1004.93 241.725 1004.66 241.517 1004.47 241.278C1004.29 241.04 1004.14 240.828 1004.04 240.642H1003.93V245.273H1002.24ZM1003.9 237.636C1003.9 238.25 1003.99 238.788 1004.17 239.25C1004.35 239.712 1004.6 240.074 1004.94 240.335C1005.28 240.593 1005.69 240.722 1006.18 240.722C1006.69 240.722 1007.11 240.587 1007.45 240.318C1007.79 240.045 1008.05 239.676 1008.22 239.21C1008.4 238.744 1008.49 238.22 1008.49 237.636C1008.49 237.061 1008.4 236.544 1008.23 236.085C1008.06 235.627 1007.8 235.265 1007.46 235C1007.12 234.735 1006.69 234.602 1006.18 234.602C1005.69 234.602 1005.27 234.729 1004.93 234.983C1004.59 235.237 1004.34 235.591 1004.16 236.045C1003.99 236.5 1003.9 237.03 1003.9 237.636ZM1017.64 238.381V233.273H1019.34V242H1017.67V240.489H1017.58C1017.38 240.955 1017.06 241.343 1016.62 241.653C1016.18 241.96 1015.63 242.114 1014.97 242.114C1014.41 242.114 1013.92 241.991 1013.49 241.744C1013.06 241.494 1012.72 241.125 1012.47 240.636C1012.23 240.148 1012.11 239.544 1012.11 238.824V233.273H1013.81V238.619C1013.81 239.214 1013.97 239.687 1014.3 240.04C1014.63 240.392 1015.06 240.568 1015.59 240.568C1015.91 240.568 1016.22 240.489 1016.54 240.33C1016.86 240.17 1017.12 239.93 1017.33 239.608C1017.54 239.286 1017.64 238.877 1017.64 238.381ZM1025.7 233.273V234.636H1020.93V233.273H1025.7ZM1022.21 231.182H1023.91V239.438C1023.91 239.767 1023.96 240.015 1024.06 240.182C1024.16 240.345 1024.28 240.456 1024.44 240.517C1024.6 240.574 1024.77 240.602 1024.96 240.602C1025.09 240.602 1025.21 240.593 1025.31 240.574C1025.42 240.555 1025.5 240.54 1025.55 240.528L1025.86 241.932C1025.76 241.97 1025.62 242.008 1025.44 242.045C1025.26 242.087 1025.03 242.11 1024.76 242.114C1024.31 242.121 1023.89 242.042 1023.51 241.875C1023.12 241.708 1022.81 241.451 1022.57 241.102C1022.33 240.754 1022.21 240.316 1022.21 239.79V231.182ZM1031.25 242.176C1030.39 242.176 1029.65 241.992 1029.03 241.625C1028.41 241.254 1027.93 240.733 1027.59 240.062C1027.26 239.388 1027.09 238.598 1027.09 237.693C1027.09 236.799 1027.26 236.011 1027.59 235.33C1027.93 234.648 1028.4 234.116 1029 233.733C1029.61 233.35 1030.32 233.159 1031.13 233.159C1031.62 233.159 1032.1 233.241 1032.56 233.403C1033.02 233.566 1033.44 233.822 1033.8 234.17C1034.17 234.519 1034.46 234.972 1034.67 235.528C1034.89 236.081 1034.99 236.754 1034.99 237.545V238.148H1028.05V236.875H1033.33C1033.33 236.428 1033.24 236.032 1033.05 235.688C1032.87 235.339 1032.62 235.064 1032.29 234.864C1031.96 234.663 1031.58 234.562 1031.14 234.562C1030.66 234.562 1030.25 234.68 1029.89 234.915C1029.54 235.146 1029.26 235.449 1029.07 235.824C1028.88 236.195 1028.79 236.598 1028.79 237.034V238.028C1028.79 238.612 1028.89 239.108 1029.09 239.517C1029.3 239.926 1029.59 240.239 1029.96 240.455C1030.33 240.667 1030.77 240.773 1031.26 240.773C1031.59 240.773 1031.88 240.727 1032.14 240.636C1032.41 240.542 1032.64 240.402 1032.83 240.216C1033.03 240.03 1033.17 239.801 1033.28 239.528L1034.88 239.818C1034.75 240.292 1034.52 240.706 1034.19 241.062C1033.86 241.415 1033.45 241.689 1032.95 241.886C1032.45 242.08 1031.88 242.176 1031.25 242.176ZM1036.88 242V233.273H1038.52V234.659H1038.61C1038.77 234.189 1039.05 233.82 1039.45 233.551C1039.86 233.278 1040.31 233.142 1040.83 233.142C1040.93 233.142 1041.06 233.146 1041.2 233.153C1041.35 233.161 1041.46 233.17 1041.55 233.182V234.807C1041.48 234.788 1041.36 234.767 1041.18 234.744C1041.01 234.718 1040.83 234.705 1040.66 234.705C1040.26 234.705 1039.9 234.79 1039.59 234.96C1039.28 235.127 1039.03 235.36 1038.85 235.659C1038.67 235.955 1038.58 236.292 1038.58 236.67V242H1036.88ZM1049.56 235.403L1048.02 235.676C1047.95 235.479 1047.85 235.292 1047.71 235.114C1047.57 234.936 1047.39 234.79 1047.15 234.676C1046.92 234.562 1046.63 234.506 1046.27 234.506C1045.79 234.506 1045.39 234.614 1045.07 234.83C1044.75 235.042 1044.59 235.316 1044.59 235.653C1044.59 235.945 1044.69 236.18 1044.91 236.358C1045.13 236.536 1045.47 236.682 1045.95 236.795L1047.34 237.114C1048.14 237.299 1048.74 237.585 1049.14 237.972C1049.53 238.358 1049.73 238.86 1049.73 239.477C1049.73 240 1049.58 240.466 1049.27 240.875C1048.97 241.28 1048.55 241.598 1048.02 241.83C1047.48 242.061 1046.86 242.176 1046.16 242.176C1045.18 242.176 1044.38 241.968 1043.77 241.551C1043.15 241.131 1042.77 240.534 1042.63 239.761L1044.27 239.511C1044.38 239.939 1044.59 240.263 1044.9 240.483C1045.22 240.699 1045.64 240.807 1046.15 240.807C1046.7 240.807 1047.15 240.691 1047.48 240.46C1047.82 240.225 1047.98 239.939 1047.98 239.602C1047.98 239.33 1047.88 239.1 1047.68 238.915C1047.48 238.729 1047.17 238.589 1046.75 238.494L1045.27 238.17C1044.46 237.985 1043.86 237.689 1043.47 237.284C1043.08 236.879 1042.89 236.366 1042.89 235.744C1042.89 235.229 1043.03 234.778 1043.32 234.392C1043.61 234.006 1044 233.705 1044.51 233.489C1045.02 233.269 1045.6 233.159 1046.26 233.159C1047.2 233.159 1047.94 233.364 1048.48 233.773C1049.02 234.178 1049.38 234.722 1049.56 235.403Z" fill="black"/>
<rect x="1120" y="144" width="160" height="128" rx="15" fill="#EDEDED"/>
<g clip-path="url(#clip5_248_2033)">
<path d="M1216 180H1184C1181.79 180 1180 181.791 1180 184V200C1180 202.209 1181.79 204 1184 204H1216C1218.21 204 1220 202.209 1220 200V184C1220 181.791 1218.21 180 1216 180Z" stroke="black" stroke-width="2" stroke-linecap="round" stroke-linejoin="round"/>
<path d="M1188 192H1196M1192 188V196" stroke="black" stroke-width="2" stroke-linecap="round" stroke-linejoin="round"/>
<path d="M1206 190V190.021" stroke="black" stroke-width="3" stroke-linecap="round" stroke-linejoin="round"/>
<path d="M1212 194V194.021" stroke="black" stroke-width="3" stroke-linecap="round" stroke-linejoin="round"/>
</g>
<path d="M1179.83 234.04C1179.72 233.695 1179.57 233.386 1179.38 233.114C1179.2 232.837 1178.98 232.602 1178.73 232.409C1178.47 232.212 1178.19 232.062 1177.86 231.96C1177.54 231.858 1177.18 231.807 1176.8 231.807C1176.14 231.807 1175.55 231.975 1175.02 232.312C1174.5 232.65 1174.08 233.144 1173.77 233.795C1173.47 234.443 1173.32 235.237 1173.32 236.176C1173.32 237.119 1173.47 237.917 1173.78 238.568C1174.09 239.22 1174.51 239.714 1175.04 240.051C1175.58 240.388 1176.18 240.557 1176.87 240.557C1177.5 240.557 1178.05 240.428 1178.52 240.17C1178.99 239.913 1179.36 239.549 1179.62 239.08C1179.88 238.606 1180.01 238.049 1180.01 237.409L1180.46 237.494H1177.13V236.045H1181.71V237.369C1181.71 238.347 1181.5 239.195 1181.08 239.915C1180.67 240.631 1180.1 241.184 1179.37 241.574C1178.64 241.964 1177.8 242.159 1176.87 242.159C1175.81 242.159 1174.89 241.917 1174.09 241.432C1173.3 240.947 1172.68 240.259 1172.24 239.369C1171.8 238.475 1171.58 237.415 1171.58 236.188C1171.58 235.259 1171.7 234.426 1171.96 233.688C1172.22 232.949 1172.58 232.322 1173.05 231.807C1173.52 231.288 1174.07 230.892 1174.7 230.619C1175.34 230.343 1176.03 230.205 1176.79 230.205C1177.41 230.205 1178 230.297 1178.54 230.483C1179.09 230.669 1179.57 230.932 1180 231.273C1180.42 231.614 1180.78 232.019 1181.06 232.489C1181.34 232.955 1181.53 233.472 1181.63 234.04H1179.83ZM1186.34 242.193C1185.79 242.193 1185.29 242.091 1184.84 241.886C1184.39 241.678 1184.04 241.377 1183.78 240.983C1183.52 240.589 1183.39 240.106 1183.39 239.534C1183.39 239.042 1183.48 238.636 1183.67 238.318C1183.86 238 1184.12 237.748 1184.44 237.562C1184.76 237.377 1185.12 237.237 1185.52 237.142C1185.92 237.047 1186.32 236.975 1186.74 236.926C1187.26 236.866 1187.68 236.816 1188.01 236.778C1188.33 236.737 1188.57 236.67 1188.72 236.58C1188.87 236.489 1188.94 236.341 1188.94 236.136V236.097C1188.94 235.6 1188.8 235.216 1188.52 234.943C1188.24 234.67 1187.83 234.534 1187.28 234.534C1186.71 234.534 1186.26 234.661 1185.93 234.915C1185.6 235.165 1185.38 235.443 1185.25 235.75L1183.66 235.386C1183.85 234.856 1184.12 234.428 1184.49 234.102C1184.85 233.773 1185.28 233.534 1185.75 233.386C1186.23 233.235 1186.73 233.159 1187.26 233.159C1187.61 233.159 1187.98 233.201 1188.37 233.284C1188.76 233.364 1189.13 233.511 1189.47 233.727C1189.81 233.943 1190.1 234.252 1190.32 234.653C1190.54 235.051 1190.64 235.568 1190.64 236.205V242H1188.99V240.807H1188.92C1188.81 241.027 1188.64 241.242 1188.42 241.455C1188.2 241.667 1187.92 241.843 1187.58 241.983C1187.23 242.123 1186.82 242.193 1186.34 242.193ZM1186.71 240.83C1187.18 240.83 1187.58 240.737 1187.91 240.551C1188.25 240.366 1188.5 240.123 1188.68 239.824C1188.86 239.521 1188.95 239.197 1188.95 238.852V237.727C1188.89 237.788 1188.77 237.845 1188.59 237.898C1188.42 237.947 1188.23 237.991 1188.01 238.028C1187.79 238.062 1187.57 238.095 1187.37 238.125C1187.16 238.152 1186.98 238.174 1186.84 238.193C1186.51 238.235 1186.21 238.305 1185.94 238.403C1185.67 238.502 1185.46 238.644 1185.29 238.83C1185.13 239.011 1185.05 239.254 1185.05 239.557C1185.05 239.977 1185.21 240.295 1185.52 240.511C1185.83 240.723 1186.23 240.83 1186.71 240.83ZM1192.91 242V233.273H1194.54V234.693H1194.65C1194.83 234.212 1195.13 233.837 1195.54 233.568C1195.95 233.295 1196.45 233.159 1197.02 233.159C1197.6 233.159 1198.09 233.295 1198.49 233.568C1198.88 233.841 1199.18 234.216 1199.37 234.693H1199.46C1199.67 234.227 1200 233.856 1200.45 233.58C1200.91 233.299 1201.45 233.159 1202.08 233.159C1202.87 233.159 1203.52 233.407 1204.02 233.903C1204.52 234.4 1204.77 235.148 1204.77 236.148V242H1203.07V236.307C1203.07 235.716 1202.91 235.288 1202.59 235.023C1202.27 234.758 1201.88 234.625 1201.44 234.625C1200.88 234.625 1200.45 234.795 1200.15 235.136C1199.84 235.473 1199.69 235.907 1199.69 236.438V242H1197.99V236.199C1197.99 235.725 1197.85 235.345 1197.55 235.057C1197.25 234.769 1196.87 234.625 1196.4 234.625C1196.07 234.625 1195.78 234.71 1195.5 234.881C1195.24 235.047 1195.02 235.28 1194.85 235.58C1194.69 235.879 1194.61 236.225 1194.61 236.619V242H1192.91ZM1207.05 242V233.273H1208.75V242H1207.05ZM1207.91 231.926C1207.61 231.926 1207.36 231.828 1207.14 231.631C1206.94 231.43 1206.83 231.191 1206.83 230.915C1206.83 230.634 1206.94 230.396 1207.14 230.199C1207.36 229.998 1207.61 229.898 1207.91 229.898C1208.2 229.898 1208.45 229.998 1208.66 230.199C1208.87 230.396 1208.98 230.634 1208.98 230.915C1208.98 231.191 1208.87 231.43 1208.66 231.631C1208.45 231.828 1208.2 231.926 1207.91 231.926ZM1212.73 236.818V242H1211.03V233.273H1212.66V234.693H1212.77C1212.97 234.231 1213.29 233.86 1213.71 233.58C1214.15 233.299 1214.69 233.159 1215.35 233.159C1215.94 233.159 1216.46 233.284 1216.91 233.534C1217.35 233.78 1217.7 234.148 1217.95 234.636C1218.19 235.125 1218.32 235.729 1218.32 236.449V242H1216.62V236.653C1216.62 236.021 1216.45 235.527 1216.12 235.17C1215.79 234.811 1215.34 234.631 1214.77 234.631C1214.37 234.631 1214.02 234.716 1213.71 234.886C1213.41 235.057 1213.17 235.307 1212.99 235.636C1212.82 235.962 1212.73 236.356 1212.73 236.818ZM1224.25 245.455C1223.56 245.455 1222.96 245.364 1222.46 245.182C1221.97 245 1221.56 244.759 1221.25 244.46C1220.93 244.161 1220.7 243.833 1220.54 243.477L1222 242.875C1222.11 243.042 1222.24 243.218 1222.41 243.403C1222.59 243.593 1222.82 243.754 1223.12 243.886C1223.42 244.019 1223.8 244.085 1224.27 244.085C1224.92 244.085 1225.45 243.928 1225.87 243.614C1226.29 243.303 1226.5 242.807 1226.5 242.125V240.409H1226.39C1226.29 240.595 1226.14 240.801 1225.95 241.028C1225.76 241.256 1225.5 241.453 1225.16 241.619C1224.83 241.786 1224.4 241.869 1223.86 241.869C1223.17 241.869 1222.55 241.708 1222 241.386C1221.45 241.061 1221.01 240.581 1220.69 239.949C1220.37 239.312 1220.21 238.53 1220.21 237.602C1220.21 236.674 1220.37 235.879 1220.69 235.216C1221 234.553 1221.44 234.045 1221.99 233.693C1222.55 233.337 1223.17 233.159 1223.87 233.159C1224.42 233.159 1224.85 233.25 1225.19 233.432C1225.52 233.61 1225.78 233.818 1225.96 234.057C1226.15 234.295 1226.3 234.506 1226.4 234.688H1226.53V233.273H1228.19V242.193C1228.19 242.943 1228.02 243.559 1227.67 244.04C1227.32 244.521 1226.85 244.877 1226.25 245.108C1225.66 245.339 1225 245.455 1224.25 245.455ZM1224.24 240.46C1224.73 240.46 1225.14 240.347 1225.48 240.119C1225.82 239.888 1226.07 239.559 1226.25 239.131C1226.43 238.699 1226.52 238.182 1226.52 237.58C1226.52 236.992 1226.43 236.475 1226.25 236.028C1226.08 235.581 1225.82 235.233 1225.49 234.983C1225.15 234.729 1224.73 234.602 1224.24 234.602C1223.73 234.602 1223.3 234.735 1222.96 235C1222.62 235.261 1222.36 235.617 1222.19 236.068C1222.02 236.519 1221.93 237.023 1221.93 237.58C1221.93 238.152 1222.02 238.653 1222.19 239.085C1222.37 239.517 1222.62 239.854 1222.96 240.097C1223.31 240.339 1223.73 240.46 1224.24 240.46Z" fill="black"/>
<defs>
<clipPath id="clip0_248_2033">
<rect width="48" height="48" fill="white" transform="translate(216 168)"/>
</clipPath>
<clipPath id="clip1_248_2033">
<rect width="48" height="48" fill="white" transform="translate(408 168)"/>
</clipPath>
<clipPath id="clip2_248_2033">
<rect width="48" height="48" fill="white" transform="translate(600 168)"/>
</clipPath>
<clipPath id="clip3_248_2033">
<rect width="48" height="48" fill="white" transform="translate(792 168)"/>
</clipPath>
<clipPath id="clip4_248_2033">
<rect width="48" height="48" fill="white" transform="translate(984 168)"/>
</clipPath>
<clipPath id="clip5_248_2033">
<rect width="48" height="48" fill="white" transform="translate(1176 168)"/>
</clipPath>
</defs>
</svg>
